REM DIRINDEX 1\2\6,1\2\7,1\2\8,1\2\9,1\3\10,1\3\11,1\4\12,1\4\13,1\4\14,1\5\15,1\5\16,1\5\17
REM DIRNAME folder01,folder02,folder03,folder04,folder05,folder06,folder07,folder08,folder09,folder10,folder11,folder12,folder13,folder14,folder15,folder16,folder17
TITLE ""
FILE "1900_3_100 sec17_1675_1700.mp3" MP3
  TRACK 01 AUDIO
    TITLE "0:"
    INDEX 01 00:00:00
  TRACK 02 AUDIO
    TITLE "17:cjc020_9334"
    INDEX 01 00:00:15
  TRACK 03 AUDIO
    TITLE "0:"
    INDEX 01 00:01:52
  TRACK 04 AUDIO
    TITLE "16:cjc020_9335"
    INDEX 01 00:01:60
  TRACK 05 AUDIO
    TITLE "0:"
    INDEX 01 00:03:10
  TRACK 06 AUDIO
    TITLE "17:cjc020_9336"
    INDEX 01 00:03:68
  TRACK 07 AUDIO
    TITLE "0:"
    INDEX 01 00:05:10
  TRACK 08 AUDIO
    TITLE "16:cjc020_9337"
    INDEX 01 00:05:12
  TRACK 09 AUDIO
    TITLE "0:"
    INDEX 01 00:06:33
  TRACK 10 AUDIO
    TITLE "17:cjc020_9338"
    INDEX 01 00:07:17
  TRACK 11 AUDIO
    TITLE "0:"
    INDEX 01 00:08:66
  TRACK 12 AUDIO
    TITLE "16:cjc020_9339"
    INDEX 01 00:08:73
  TRACK 13 AUDIO
    TITLE "0:"
    INDEX 01 00:10:08
  TRACK 14 AUDIO
    TITLE "17:cjc020_9340"
    INDEX 01 00:10:68
  TRACK 15 AUDIO
    TITLE "0:"
    INDEX 01 00:13:14
  TRACK 16 AUDIO
    TITLE "16:cjc020_9341"
    INDEX 01 00:13:20
  TRACK 17 AUDIO
    TITLE "0:"
    INDEX 01 00:14:39
  TRACK 18 AUDIO
    TITLE "17:cjc020_9342"
    INDEX 01 00:15:27
  TRACK 19 AUDIO
    TITLE "0:"
    INDEX 01 00:16:44
  TRACK 20 AUDIO
    TITLE "16:cjc020_9343"
    INDEX 01 00:16:51
  TRACK 21 AUDIO
    TITLE "0:"
    INDEX 01 00:17:61
  TRACK 22 AUDIO
    TITLE "17:cjc020_9344"
    INDEX 01 00:18:42
  TRACK 23 AUDIO
    TITLE "0:"
    INDEX 01 00:19:52
  TRACK 24 AUDIO
    TITLE "16:cjc020_9345"
    INDEX 01 00:19:54
  TRACK 25 AUDIO
    TITLE "0:"
    INDEX 01 00:20:57
  TRACK 26 AUDIO
    TITLE "17:cjc020_9346"
    INDEX 01 00:21:39
  TRACK 27 AUDIO
    TITLE "0:"
    INDEX 01 00:22:60
  TRACK 28 AUDIO
    TITLE "16:cjc020_9347"
    INDEX 01 00:22:62
  TRACK 29 AUDIO
    TITLE "0:"
    INDEX 01 00:23:69
  TRACK 30 AUDIO
    TITLE "17:cjc020_9348"
    INDEX 01 00:24:55
  TRACK 31 AUDIO
    TITLE "0:"
    INDEX 01 00:25:70
  TRACK 32 AUDIO
    TITLE "16:cjc020_9349"
    INDEX 01 00:26:01
  TRACK 33 AUDIO
    TITLE "0:"
    INDEX 01 00:27:02
  TRACK 34 AUDIO
    TITLE "17:cjc020_9350"
    INDEX 01 00:27:57
  TRACK 35 AUDIO
    TITLE "0:"
    INDEX 01 00:29:01
  TRACK 36 AUDIO
    TITLE "16:cjc020_9351"
    INDEX 01 00:29:05
  TRACK 37 AUDIO
    TITLE "0:"
    INDEX 01 00:30:06
  TRACK 38 AUDIO
    TITLE "17:cjc020_9352"
    INDEX 01 00:30:67
  TRACK 39 AUDIO
    TITLE "0:"
    INDEX 01 00:32:03
  TRACK 40 AUDIO
    TITLE "16:cjc020_9353"
    INDEX 01 00:32:05
  TRACK 41 AUDIO
    TITLE "0:"
    INDEX 01 00:33:15
  TRACK 42 AUDIO
    TITLE "17:cjc020_9354"
    INDEX 01 00:33:71
  TRACK 43 AUDIO
    TITLE "0:"
    INDEX 01 00:35:02
  TRACK 44 AUDIO
    TITLE "16:cjc020_9355"
    INDEX 01 00:35:08
  TRACK 45 AUDIO
    TITLE "0:"
    INDEX 01 00:36:05
  TRACK 46 AUDIO
    TITLE "17:cjc020_9356"
    INDEX 01 00:36:66
  TRACK 47 AUDIO
    TITLE "0:"
    INDEX 01 00:38:06
  TRACK 48 AUDIO
    TITLE "16:cjc020_9357"
    INDEX 01 00:38:10
  TRACK 49 AUDIO
    TITLE "0:"
    INDEX 01 00:39:11
  TRACK 50 AUDIO
    TITLE "17:cjc020_9358"
    INDEX 01 00:39:68
  TRACK 51 AUDIO
    TITLE "0:"
    INDEX 01 00:41:24
  TRACK 52 AUDIO
    TITLE "16:cjc020_9359"
    INDEX 01 00:41:30
  TRACK 53 AUDIO
    TITLE "0:"
    INDEX 01 00:42:29
  TRACK 54 AUDIO
    TITLE "17:cjc020_9360"
    INDEX 01 00:43:11
  TRACK 55 AUDIO
    TITLE "0:"
    INDEX 01 00:44:28
  TRACK 56 AUDIO
    TITLE "16:cjc020_9361"
    INDEX 01 00:44:32
  TRACK 57 AUDIO
    TITLE "0:"
    INDEX 01 00:45:28
  TRACK 58 AUDIO
    TITLE "17:cjc020_9362"
    INDEX 01 00:46:13
  TRACK 59 AUDIO
    TITLE "0:"
    INDEX 01 00:47:21
  TRACK 60 AUDIO
    TITLE "16:cjc020_9363"
    INDEX 01 00:47:28
  TRACK 61 AUDIO
    TITLE "0:"
    INDEX 01 00:48:36
  TRACK 62 AUDIO
    TITLE "17:cjc020_9364"
    INDEX 01 00:49:16
  TRACK 63 AUDIO
    TITLE "0:"
    INDEX 01 00:50:27
  TRACK 64 AUDIO
    TITLE "16:cjc020_9365"
    INDEX 01 00:50:31
  TRACK 65 AUDIO
    TITLE "0:"
    INDEX 01 00:51:38
  TRACK 66 AUDIO
    TITLE "17:cjc020_9366"
    INDEX 01 00:52:22
  TRACK 67 AUDIO
    TITLE "0:"
    INDEX 01 00:53:21
  TRACK 68 AUDIO
    TITLE "16:cjc020_9367"
    INDEX 01 00:53:25
  TRACK 69 AUDIO
    TITLE "0:"
    INDEX 01 00:54:30
  TRACK 70 AUDIO
    TITLE "17:cjc020_9368"
    INDEX 01 00:55:14
  TRACK 71 AUDIO
    TITLE "0:"
    INDEX 01 00:56:29
  TRACK 72 AUDIO
    TITLE "16:cjc020_9369"
    INDEX 01 00:56:33
  TRACK 73 AUDIO
    TITLE "0:"
    INDEX 01 00:57:46
  TRACK 74 AUDIO
    TITLE "17:cjc020_9370"
    INDEX 01 00:58:28
  TRACK 75 AUDIO
    TITLE "0:"
    INDEX 01 01:00:70
  TRACK 76 AUDIO
    TITLE "16:cjc020_9371"
    INDEX 01 01:00:74
  TRACK 77 AUDIO
    TITLE "0:"
    INDEX 01 01:01:74
  TRACK 78 AUDIO
    TITLE "17:cjc020_9372"
    INDEX 01 01:02:59
  TRACK 79 AUDIO
    TITLE "0:"
    INDEX 01 01:04:01
  TRACK 80 AUDIO
    TITLE "16:cjc020_9373"
    INDEX 01 01:04:07
  TRACK 81 AUDIO
    TITLE "0:"
    INDEX 01 01:05:28
  TRACK 82 AUDIO
    TITLE "17:cjc020_9374"
    INDEX 01 01:06:06
  TRACK 83 AUDIO
    TITLE "0:"
    INDEX 01 01:07:29
  TRACK 84 AUDIO
    TITLE "16:cjc020_9375"
    INDEX 01 01:07:31
  TRACK 85 AUDIO
    TITLE "0:"
    INDEX 01 01:08:50
  TRACK 86 AUDIO
    TITLE "17:cjc020_9376"
    INDEX 01 01:09:30
  TRACK 87 AUDIO
    TITLE "0:"
    INDEX 01 01:10:51
  TRACK 88 AUDIO
    TITLE "16:cjc020_9377"
    INDEX 01 01:10:55
  TRACK 89 AUDIO
    TITLE "0:"
    INDEX 01 01:12:05
  TRACK 90 AUDIO
    TITLE "17:cjc020_9378"
    INDEX 01 01:12:62
  TRACK 91 AUDIO
    TITLE "0:"
    INDEX 01 01:14:16
  TRACK 92 AUDIO
    TITLE "16:cjc020_9379"
    INDEX 01 01:14:25
  TRACK 93 AUDIO
    TITLE "0:"
    INDEX 01 01:15:44
  TRACK 94 AUDIO
    TITLE "17:cjc020_9380"
    INDEX 01 01:16:28
  TRACK 95 AUDIO
    TITLE "0:"
    INDEX 01 01:17:59
  TRACK 96 AUDIO
    TITLE "16:cjc020_9381"
    INDEX 01 01:17:69
  TRACK 97 AUDIO
    TITLE "0:"
    INDEX 01 01:18:68
  TRACK 98 AUDIO
    TITLE "17:cjc020_9382"
    INDEX 01 01:19:56
  TRACK 99 AUDIO
    TITLE "0:"
    INDEX 01 01:20:69
  TRACK 100 AUDIO
    TITLE "16:cjc020_9383"
    INDEX 01 01:20:71
  TRACK 101 AUDIO
    TITLE "0:"
    INDEX 01 01:22:29
  TRACK 102 AUDIO
    TITLE "17:cjc020_9384"
    INDEX 01 01:23:11
  TRACK 103 AUDIO
    TITLE "0:"
    INDEX 01 01:24:51
  TRACK 104 AUDIO
    TITLE "16:cjc020_9385"
    INDEX 01 01:24:53
  TRACK 105 AUDIO
    TITLE "0:"
    INDEX 01 01:25:66
